<svg aria-hidden="true" style="position: absolute; width: 0; height: 0; overflow: hidden;" version="1.1" xmlns="http://www.w3.org/2000/svg" xmlns:xlink="http://www.w3.org/1999/xlink">
<defs>
<symbol id="icon-calculator" viewBox="0 0 16 16">
<path d="M14 0h-12c-0.553 0-1 0.447-1 1v14c0 0.553 0.447 1 1 1h12c0.553 0 1-0.447 1-1v-14c0-0.553-0.447-1-1-1zM5 14h-2v-2h2v2zM5 11h-2v-2h2v2zM5 8h-2v-2h2v2zM9 14h-2v-2h2v2zM9 11h-2v-2h2v2zM9 8h-2v-2h2v2zM13 14h-2v-2h2v2zM13 11h-2v-2h2v2zM13 8h-2v-2h2v2zM13 4h-10v-2h10v2z"></path>
</symbol>
<symbol id="icon-basket" viewBox="0 0 16 16">
<path d="M14.5 7h-13c-0.276 0-0.5-0.223-0.5-0.5s0.224-0.5 0.5-0.5h1l3-5.5c0-0.277 0.223-0.5 0.5-0.5h1c0.277 0 0.5 0.224 0.5 0.5l-3 5.5h7l-3-5.5c0-0.277 0.223-0.5 0.5-0.5h1.5c0.277 0 0.5 0.224 0.5 0.5l2.5 5.5h1c0.277 0 0.5 0.223 0.5 0.5s-0.223 0.5-0.5 0.5zM1.5 8h13c0.277 0 0.5 0.223 0.5 0.5l-1 7c0 0.277-0.223 0.5-0.5 0.5h-11c-0.276 0-0.5-0.223-0.5-0.5l-1-7c0-0.277 0.224-0.5 0.5-0.5zM11 14h1c0.277 0 0.5-0.223 0.5-0.5l0.5-3c0-0.277-0.223-0.5-0.5-0.5h-1c-0.277 0-0.5 0.223-0.5 0.5l-0.5 3c0 0.277 0.223 0.5 0.5 0.5zM7 13.5c0 0.277 0.223 0.5 0.5 0.5h1c0.277 0 0.5-0.223 0.5-0.5v-3c0-0.277-0.223-0.5-0.5-0.5h-1c-0.277 0-0.5 0.223-0.5 0.5v3zM3.5 13.5c0 0.277 0.224 0.5 0.5 0.5h1c0.277 0 0.5-0.223 0.5-0.5l-0.5-3c0-0.277-0.223-0.5-0.5-0.5h-1c-0.276 0-0.5 0.223-0.5 0.5l0.5 3z"></path>
</symbol>
<symbol id="icon-cart" viewBox="0 0 16 16">
<path d="M15.957 2.7l-1.457 5.8c0 0.069-0.014 0.135-0.039 0.194-0.051 0.12-0.146 0.216-0.266 0.267-0.060 0.025-0.126 0.039-0.195 0.039h-9.5l0.4 2h8.6c0.277 0 0.5 0.223 0.5 0.5s-0.223 0.5-0.5 0.5h-9c-0.277 0-0.5-0.223-0.5-0.5l-1.9-9.5h-1.6c-0.276 0-0.5-0.224-0.5-0.5s0.224-0.5 0.5-0.5h2c0.276 0 0.5 0.224 0.5 0.5l0.1 0.5h12.4c0.277 0 0.5 0.224 0.5 0.5 0 0.071-0.016 0.139-0.043 0.2zM4.3 8h1.7v-5h-2.7l1 5zM9 3h-2.5v5h2.5v-5zM12 3h-2.5v5h2.5v-5zM12.5 3v5h1.127l1.267-5h-2.393zM5.5 13c0.829 0 1.5 0.672 1.5 1.5s-0.671 1.5-1.5 1.5-1.5-0.672-1.5-1.5 0.671-1.5 1.5-1.5zM5.5 15c0.277 0 0.5-0.223 0.5-0.5s-0.223-0.5-0.5-0.5-0.5 0.223-0.5 0.5 0.223 0.5 0.5 0.5zM12.5 13c0.829 0 1.5 0.672 1.5 1.5s-0.671 1.5-1.5 1.5-1.5-0.672-1.5-1.5 0.671-1.5 1.5-1.5zM12.5 15c0.277 0 0.5-0.223 0.5-0.5s-0.223-0.5-0.5-0.5-0.5 0.223-0.5 0.5 0.223 0.5 0.5 0.5z"></path>
</symbol>
<symbol id="icon-basket1" viewBox="0 0 16 16">
<path d="M14.5 7h-13c-0.276 0-0.5-0.223-0.5-0.5s0.224-0.5 0.5-0.5h1l3-5.5c0-0.277 0.223-0.5 0.5-0.5h1c0.277 0 0.5 0.224 0.5 0.5l-3 5.5h7l-3-5.5c0-0.277 0.223-0.5 0.5-0.5h1.5c0.277 0 0.5 0.224 0.5 0.5l2.5 5.5h1c0.277 0 0.5 0.223 0.5 0.5s-0.223 0.5-0.5 0.5zM1.5 8h13c0.277 0 0.5 0.223 0.5 0.5l-1 7c0 0.277-0.223 0.5-0.5 0.5h-11c-0.276 0-0.5-0.223-0.5-0.5l-1-7c0-0.277 0.224-0.5 0.5-0.5zM11 14h1c0.277 0 0.5-0.223 0.5-0.5l0.5-3c0-0.277-0.223-0.5-0.5-0.5h-1c-0.277 0-0.5 0.223-0.5 0.5l-0.5 3c0 0.277 0.223 0.5 0.5 0.5zM7 13.5c0 0.277 0.223 0.5 0.5 0.5h1c0.277 0 0.5-0.223 0.5-0.5v-3c0-0.277-0.223-0.5-0.5-0.5h-1c-0.277 0-0.5 0.223-0.5 0.5v3zM3.5 13.5c0 0.277 0.224 0.5 0.5 0.5h1c0.277 0 0.5-0.223 0.5-0.5l-0.5-3c0-0.277-0.223-0.5-0.5-0.5h-1c-0.276 0-0.5 0.223-0.5 0.5l0.5 3z"></path>
</symbol>
<symbol id="icon-cart11" viewBox="0 0 16 16">
<path d="M15.957 2.7l-1.457 5.8c0 0.069-0.014 0.135-0.039 0.194-0.051 0.12-0.146 0.216-0.266 0.267-0.060 0.025-0.126 0.039-0.195 0.039h-9.5l0.4 2h8.6c0.277 0 0.5 0.223 0.5 0.5s-0.223 0.5-0.5 0.5h-9c-0.277 0-0.5-0.223-0.5-0.5l-1.9-9.5h-1.6c-0.276 0-0.5-0.224-0.5-0.5s0.224-0.5 0.5-0.5h2c0.276 0 0.5 0.224 0.5 0.5l0.1 0.5h12.4c0.277 0 0.5 0.224 0.5 0.5 0 0.071-0.016 0.139-0.043 0.2zM4.3 8h1.7v-5h-2.7l1 5zM9 3h-2.5v5h2.5v-5zM12 3h-2.5v5h2.5v-5zM12.5 3v5h1.127l1.267-5h-2.393zM5.5 13c0.829 0 1.5 0.672 1.5 1.5s-0.671 1.5-1.5 1.5-1.5-0.672-1.5-1.5 0.671-1.5 1.5-1.5zM5.5 15c0.277 0 0.5-0.223 0.5-0.5s-0.223-0.5-0.5-0.5-0.5 0.223-0.5 0.5 0.223 0.5 0.5 0.5zM12.5 13c0.829 0 1.5 0.672 1.5 1.5s-0.671 1.5-1.5 1.5-1.5-0.672-1.5-1.5 0.671-1.5 1.5-1.5zM12.5 15c0.277 0 0.5-0.223 0.5-0.5s-0.223-0.5-0.5-0.5-0.5 0.223-0.5 0.5 0.223 0.5 0.5 0.5z"></path>
</symbol>
<symbol id="icon-cart2" viewBox="0 0 16 16">
<path d="M6 14.5c0 0.828-0.672 1.5-1.5 1.5s-1.5-0.672-1.5-1.5c0-0.828 0.672-1.5 1.5-1.5s1.5 0.672 1.5 1.5z"></path>
<path d="M16 14.5c0 0.828-0.672 1.5-1.5 1.5s-1.5-0.672-1.5-1.5c0-0.828 0.672-1.5 1.5-1.5s1.5 0.672 1.5 1.5z"></path>
<path d="M16 8v-6h-12c0-0.552-0.448-1-1-1h-3v1h2l0.751 6.438c-0.458 0.367-0.751 0.93-0.751 1.562 0 1.105 0.895 2 2 2h12v-1h-12c-0.552 0-1-0.448-1-1 0-0.003 0-0.007 0-0.010l13-1.99z"></path>
</symbol>
<symbol id="icon-credit-card" viewBox="0 0 16 16">
<path d="M14.5 2h-13c-0.825 0-1.5 0.675-1.5 1.5v9c0 0.825 0.675 1.5 1.5 1.5h13c0.825 0 1.5-0.675 1.5-1.5v-9c0-0.825-0.675-1.5-1.5-1.5zM1.5 3h13c0.271 0 0.5 0.229 0.5 0.5v1.5h-14v-1.5c0-0.271 0.229-0.5 0.5-0.5zM14.5 13h-13c-0.271 0-0.5-0.229-0.5-0.5v-4.5h14v4.5c0 0.271-0.229 0.5-0.5 0.5zM2 10h1v2h-1zM4 10h1v2h-1zM6 10h1v2h-1z"></path>
</symbol>
<symbol id="icon-exit_to_app" viewBox="0 0 24 24">
<path d="M18.984 3q0.797 0 1.406 0.609t0.609 1.406v13.969q0 0.797-0.609 1.406t-1.406 0.609h-13.969q-0.844 0-1.43-0.586t-0.586-1.43v-3.984h2.016v3.984h13.969v-13.969h-13.969v3.984h-2.016v-3.984q0-0.844 0.586-1.43t1.43-0.586h13.969zM10.078 15.609l2.578-2.625h-9.656v-1.969h9.656l-2.578-2.625 1.406-1.406 5.016 5.016-5.016 5.016z"></path>
</symbol>
<symbol id="icon-shopping-cart" viewBox="0 0 24 24">
<path d="M11 21c0-0.552-0.225-1.053-0.586-1.414s-0.862-0.586-1.414-0.586-1.053 0.225-1.414 0.586-0.586 0.862-0.586 1.414 0.225 1.053 0.586 1.414 0.862 0.586 1.414 0.586 1.053-0.225 1.414-0.586 0.586-0.862 0.586-1.414zM22 21c0-0.552-0.225-1.053-0.586-1.414s-0.862-0.586-1.414-0.586-1.053 0.225-1.414 0.586-0.586 0.862-0.586 1.414 0.225 1.053 0.586 1.414 0.862 0.586 1.414 0.586 1.053-0.225 1.414-0.586 0.586-0.862 0.586-1.414zM7.221 7h14.57l-1.371 7.191c-0.046 0.228-0.166 0.425-0.332 0.568-0.18 0.156-0.413 0.246-0.688 0.241h-9.734c-0.232 0.003-0.451-0.071-0.626-0.203-0.19-0.143-0.329-0.351-0.379-0.603zM1 2h3.18l0.848 4.239c0.108 0.437 0.502 0.761 0.972 0.761h1.221l-0.4-2h-0.821c-0.552 0-1 0.448-1 1 0 0.053 0.004 0.105 0.012 0.155 0.004 0.028 0.010 0.057 0.017 0.084l1.671 8.347c0.149 0.751 0.57 1.383 1.14 1.811 0.521 0.392 1.17 0.613 1.854 0.603h9.706c0.748 0.015 1.455-0.261 1.995-0.727 0.494-0.426 0.848-1.013 0.985-1.683l1.602-8.402c0.103-0.543-0.252-1.066-0.795-1.17-0.065-0.013-0.13-0.019-0.187-0.018h-16.18l-0.84-4.196c-0.094-0.462-0.497-0.804-0.98-0.804h-4c-0.552 0-1 0.448-1 1s0.448 1 1 1z"></path>
</symbol>
<symbol id="icon-calculator1" viewBox="0 0 32 32">
<path d="M24 5h-16c-0.553 0-1 0.447-1 1v21c0 0.552 0.447 1 1 1h16c0.552 0 1-0.448 1-1v-21c0-0.553-0.448-1-1-1zM9 15h2v2h-2v-2zM9 18h2v2h-2v-2zM9 21h2v2h-2v-2zM14 26h-5v-2h5v2zM14 23h-2v-2h2v2zM14 20h-2v-2h2v2zM14 17h-2v-2h2v2zM17 26h-2v-2h2v2zM17 23h-2v-2h2v2zM17 20h-2v-2h2v2zM17 17h-2v-2h2v2zM20 26h-2v-2h2v2zM20 23h-2v-2h2v2zM20 20h-2v-2h2v2zM20 17h-2v-2h2v2zM23 26h-2v-5h2v5zM23 20h-2v-2h2v2zM23 17h-2v-2h2v2zM23 13h-14v-6h14v6z"></path>
</symbol>
<symbol id="icon-wallet" viewBox="0 0 32 32">
<path d="M16 20c0-1.105 0.895-2 2-2s2 0.895 2 2c0 1.105-0.895 2-2 2s-2-0.895-2-2zM29.001 13c-0.001 0-0.001 0 0 0l-0.001-6v-3c0-1.657-1.344-3-3-3h-20.5c-3.033 0-5.5 2.468-5.5 5.5v20c0 3.032 2.467 5.5 5.5 5.5h18c3.032 0 5.5-2.468 5.5-5.5v-1.5c0 0 0 0 0.001 0 3.998-3.001 3.998-8.999 0-12zM5.5 3h20.5c0.551 0 1 0.448 1 1v6.184c-0.314-0.112-0.648-0.184-1-0.184h-0.001v-5c0-0.553-0.448-1-1-1h-21c-0.552 0-1 0.447-1 1v3.943c-0.617-0.631-0.999-1.491-0.999-2.443 0-1.933 1.566-3.5 3.5-3.5zM24.999 6h-21v-1h21v1zM24.999 7v1h-21v-1h21zM24.999 9v1h-19.499c-0.54 0-1.044-0.132-1.5-0.35v-0.65h20.999zM27 26.5c0 1.933-1.567 3.5-3.5 3.5h-18c-1.934 0-3.5-1.567-3.5-3.5v-15.761c0.951 0.787 2.171 1.261 3.5 1.261h20.5c0.551 0 1 0.448 1 1v2h-9c-2.762 0-5 2.238-5 5s2.239 5 5 5h9v1.5zM28.277 23h-10.277c-1.654 0-3-1.346-3-3s1.346-3 3-3h9c0.617-0.008 1.229-0.307 1.602-0.804 0.104-0.14 0.185-0.297 0.25-0.461 0.009-0.022 0.025-0.039 0.033-0.062 0.719 0.943 1.115 2.099 1.115 3.327 0 1.538-0.621 2.965-1.723 4z"></path>
</symbol>
<symbol id="icon-shopping-basket" viewBox="0 0 32 28">
<path d="M30 12c1.109 0 2 0.891 2 2s-0.891 2-2 2h-0.234l-1.797 10.344c-0.172 0.953-1 1.656-1.969 1.656h-20c-0.969 0-1.797-0.703-1.969-1.656l-1.797-10.344h-0.234c-1.109 0-2-0.891-2-2s0.891-2 2-2h28zM7.578 24.5c0.547-0.047 0.969-0.531 0.922-1.078l-0.5-6.5c-0.047-0.547-0.531-0.969-1.078-0.922s-0.969 0.531-0.922 1.078l0.5 6.5c0.047 0.516 0.484 0.922 1 0.922h0.078zM14 23.5v-6.5c0-0.547-0.453-1-1-1s-1 0.453-1 1v6.5c0 0.547 0.453 1 1 1s1-0.453 1-1zM20 23.5v-6.5c0-0.547-0.453-1-1-1s-1 0.453-1 1v6.5c0 0.547 0.453 1 1 1s1-0.453 1-1zM25.5 23.578l0.5-6.5c0.047-0.547-0.375-1.031-0.922-1.078s-1.031 0.375-1.078 0.922l-0.5 6.5c-0.047 0.547 0.375 1.031 0.922 1.078h0.078c0.516 0 0.953-0.406 1-0.922zM7.438 4.562l-1.453 6.438h-2.063l1.578-6.891c0.406-1.828 2.016-3.109 3.891-3.109h2.609c0-0.547 0.453-1 1-1h6c0.547 0 1 0.453 1 1h2.609c1.875 0 3.484 1.281 3.891 3.109l1.578 6.891h-2.063l-1.453-6.438c-0.219-0.922-1.016-1.563-1.953-1.563h-2.609c0 0.547-0.453 1-1 1h-6c-0.547 0-1-0.453-1-1h-2.609c-0.938 0-1.734 0.641-1.953 1.563z"></path>
</symbol>
<symbol id="icon-shopping-Cart" viewBox="0 0 28 28">
<path d="M27.453 22l0.547 4.891c0.031 0.281-0.063 0.562-0.25 0.781-0.187 0.203-0.469 0.328-0.75 0.328h-26c-0.281 0-0.562-0.125-0.75-0.328-0.187-0.219-0.281-0.5-0.25-0.781l0.547-4.891h26.906zM26 8.891l1.344 12.109h-26.688l1.344-12.109c0.063-0.5 0.484-0.891 1-0.891h4v2c0 1.109 0.891 2 2 2s2-0.891 2-2v-2h6v2c0 1.109 0.891 2 2 2s2-0.891 2-2v-2h4c0.516 0 0.938 0.391 1 0.891zM20 6v4c0 0.547-0.453 1-1 1s-1-0.453-1-1v-4c0-2.203-1.797-4-4-4s-4 1.797-4 4v4c0 0.547-0.453 1-1 1s-1-0.453-1-1v-4c0-3.313 2.688-6 6-6s6 2.688 6 6z"></path>
</symbol>
<symbol id="icon-shopping-cart1" viewBox="0 0 26 28">
<path d="M10 24c0 1.094-0.906 2-2 2s-2-0.906-2-2 0.906-2 2-2 2 0.906 2 2zM24 24c0 1.094-0.906 2-2 2s-2-0.906-2-2 0.906-2 2-2 2 0.906 2 2zM26 7v8c0 0.5-0.391 0.938-0.891 1l-16.312 1.906c0.078 0.359 0.203 0.719 0.203 1.094 0 0.359-0.219 0.688-0.375 1h14.375c0.547 0 1 0.453 1 1s-0.453 1-1 1h-16c-0.547 0-1-0.453-1-1 0-0.484 0.703-1.656 0.953-2.141l-2.766-12.859h-3.187c-0.547 0-1-0.453-1-1s0.453-1 1-1h4c1.047 0 1.078 1.25 1.234 2h18.766c0.547 0 1 0.453 1 1z"></path>
</symbol>
<symbol id="icon-cart-plus" viewBox="0 0 26 28">
<path d="M19 11c0-0.547-0.453-1-1-1h-2v-2c0-0.547-0.453-1-1-1s-1 0.453-1 1v2h-2c-0.547 0-1 0.453-1 1s0.453 1 1 1h2v2c0 0.547 0.453 1 1 1s1-0.453 1-1v-2h2c0.547 0 1-0.453 1-1zM10 24c0 1.109-0.891 2-2 2s-2-0.891-2-2 0.891-2 2-2 2 0.891 2 2zM24 24c0 1.109-0.891 2-2 2s-2-0.891-2-2 0.891-2 2-2 2 0.891 2 2zM26 7v8c0 0.5-0.375 0.938-0.891 1l-16.312 1.906c0.063 0.344 0.203 0.734 0.203 1.094s-0.219 0.688-0.375 1h14.375c0.547 0 1 0.453 1 1s-0.453 1-1 1h-16c-0.547 0-1-0.453-1-1 0-0.484 0.734-1.687 0.953-2.141l-2.766-12.859h-3.187c-0.547 0-1-0.453-1-1s0.453-1 1-1h4c1.062 0 1.078 1.25 1.234 2h18.766c0.547 0 1 0.453 1 1z"></path>
</symbol>
<symbol id="icon-shopping-basket1" viewBox="0 0 32 28">
<path d="M30 12c1.109 0 2 0.891 2 2s-0.891 2-2 2h-0.234l-1.797 10.344c-0.172 0.953-1 1.656-1.969 1.656h-20c-0.969 0-1.797-0.703-1.969-1.656l-1.797-10.344h-0.234c-1.109 0-2-0.891-2-2s0.891-2 2-2h28zM7.578 24.5c0.547-0.047 0.969-0.531 0.922-1.078l-0.5-6.5c-0.047-0.547-0.531-0.969-1.078-0.922s-0.969 0.531-0.922 1.078l0.5 6.5c0.047 0.516 0.484 0.922 1 0.922h0.078zM14 23.5v-6.5c0-0.547-0.453-1-1-1s-1 0.453-1 1v6.5c0 0.547 0.453 1 1 1s1-0.453 1-1zM20 23.5v-6.5c0-0.547-0.453-1-1-1s-1 0.453-1 1v6.5c0 0.547 0.453 1 1 1s1-0.453 1-1zM25.5 23.578l0.5-6.5c0.047-0.547-0.375-1.031-0.922-1.078s-1.031 0.375-1.078 0.922l-0.5 6.5c-0.047 0.547 0.375 1.031 0.922 1.078h0.078c0.516 0 0.953-0.406 1-0.922zM7.438 4.562l-1.453 6.438h-2.063l1.578-6.891c0.406-1.828 2.016-3.109 3.891-3.109h2.609c0-0.547 0.453-1 1-1h6c0.547 0 1 0.453 1 1h2.609c1.875 0 3.484 1.281 3.891 3.109l1.578 6.891h-2.063l-1.453-6.438c-0.219-0.922-1.016-1.563-1.953-1.563h-2.609c0 0.547-0.453 1-1 1h-6c-0.547 0-1-0.453-1-1h-2.609c-0.938 0-1.734 0.641-1.953 1.563z"></path>
</symbol>
<symbol id="icon-shopping-cart11" viewBox="0 0 26 28">
<path d="M10 24c0 1.094-0.906 2-2 2s-2-0.906-2-2 0.906-2 2-2 2 0.906 2 2zM24 24c0 1.094-0.906 2-2 2s-2-0.906-2-2 0.906-2 2-2 2 0.906 2 2zM26 7v8c0 0.5-0.391 0.938-0.891 1l-16.312 1.906c0.078 0.359 0.203 0.719 0.203 1.094 0 0.359-0.219 0.688-0.375 1h14.375c0.547 0 1 0.453 1 1s-0.453 1-1 1h-16c-0.547 0-1-0.453-1-1 0-0.484 0.703-1.656 0.953-2.141l-2.766-12.859h-3.187c-0.547 0-1-0.453-1-1s0.453-1 1-1h4c1.047 0 1.078 1.25 1.234 2h18.766c0.547 0 1 0.453 1 1z"></path>
</symbol>
<symbol id="icon-cart-plus1" viewBox="0 0 26 28">
<path d="M19 11c0-0.547-0.453-1-1-1h-2v-2c0-0.547-0.453-1-1-1s-1 0.453-1 1v2h-2c-0.547 0-1 0.453-1 1s0.453 1 1 1h2v2c0 0.547 0.453 1 1 1s1-0.453 1-1v-2h2c0.547 0 1-0.453 1-1zM10 24c0 1.109-0.891 2-2 2s-2-0.891-2-2 0.891-2 2-2 2 0.891 2 2zM24 24c0 1.109-0.891 2-2 2s-2-0.891-2-2 0.891-2 2-2 2 0.891 2 2zM26 7v8c0 0.5-0.375 0.938-0.891 1l-16.312 1.906c0.063 0.344 0.203 0.734 0.203 1.094s-0.219 0.688-0.375 1h14.375c0.547 0 1 0.453 1 1s-0.453 1-1 1h-16c-0.547 0-1-0.453-1-1 0-0.484 0.734-1.687 0.953-2.141l-2.766-12.859h-3.187c-0.547 0-1-0.453-1-1s0.453-1 1-1h4c1.062 0 1.078 1.25 1.234 2h18.766c0.547 0 1 0.453 1 1z"></path>
</symbol>
<symbol id="icon-calculator2" viewBox="0 0 26 28">
<path d="M6 24c0-1.109-0.891-2-2-2s-2 0.891-2 2 0.891 2 2 2 2-0.891 2-2zM12 24c0-1.109-0.891-2-2-2s-2 0.891-2 2 0.891 2 2 2 2-0.891 2-2zM6 18c0-1.109-0.891-2-2-2s-2 0.891-2 2 0.891 2 2 2 2-0.891 2-2zM18 24c0-1.109-0.891-2-2-2s-2 0.891-2 2 0.891 2 2 2 2-0.891 2-2zM12 18c0-1.109-0.891-2-2-2s-2 0.891-2 2 0.891 2 2 2 2-0.891 2-2zM6 12c0-1.109-0.891-2-2-2s-2 0.891-2 2 0.891 2 2 2 2-0.891 2-2zM18 18c0-1.109-0.891-2-2-2s-2 0.891-2 2 0.891 2 2 2 2-0.891 2-2zM12 12c0-1.109-0.891-2-2-2s-2 0.891-2 2 0.891 2 2 2 2-0.891 2-2zM24 24v-6c0-1.094-0.906-2-2-2v0c-1.094 0-2 0.906-2 2v6c0 1.094 0.906 2 2 2v0c1.094 0 2-0.906 2-2zM18 12c0-1.109-0.891-2-2-2s-2 0.891-2 2 0.891 2 2 2 2-0.891 2-2zM24 7v-4c0-0.547-0.453-1-1-1h-20c-0.547 0-1 0.453-1 1v4c0 0.547 0.453 1 1 1h20c0.547 0 1-0.453 1-1zM24 12c0-1.109-0.891-2-2-2s-2 0.891-2 2 0.891 2 2 2 2-0.891 2-2zM26 2v24c0 1.094-0.906 2-2 2h-22c-1.094 0-2-0.906-2-2v-24c0-1.094 0.906-2 2-2h22c1.094 0 2 0.906 2 2z"></path>
</symbol>
<symbol id="icon-calculator3" viewBox="0 0 20 20">
<path d="M14.6 1h-9.202c-0.769 0-1.398 0.629-1.398 1.4v15.2c0 0.77 0.629 1.4 1.398 1.4h9.202c0.769 0 1.4-0.631 1.4-1.4v-15.2c0-0.771-0.631-1.4-1.4-1.4zM7 12c0.689 0 1.25 0.447 1.25 1s-0.561 1-1.25 1c-0.69 0-1.25-0.447-1.25-1s0.56-1 1.25-1zM5.75 10c0-0.553 0.56-1 1.25-1s1.25 0.447 1.25 1-0.561 1-1.25 1c-0.69 0-1.25-0.447-1.25-1zM7 15c0.689 0 1.25 0.447 1.25 1s-0.561 1-1.25 1c-0.69 0-1.25-0.447-1.25-1s0.56-1 1.25-1zM10 12c0.689 0 1.25 0.447 1.25 1s-0.561 1-1.25 1c-0.69 0-1.25-0.447-1.25-1s0.56-1 1.25-1zM8.75 10c0-0.553 0.56-1 1.25-1s1.25 0.447 1.25 1-0.561 1-1.25 1c-0.69 0-1.25-0.447-1.25-1zM10 15c0.689 0 1.25 0.447 1.25 1s-0.561 1-1.25 1c-0.69 0-1.25-0.447-1.25-1s0.56-1 1.25-1zM13 12c0.689 0 1.25 0.447 1.25 1s-0.561 1-1.25 1c-0.69 0-1.25-0.447-1.25-1s0.56-1 1.25-1zM11.75 10c0-0.553 0.56-1 1.25-1s1.25 0.447 1.25 1-0.561 1-1.25 1c-0.69 0-1.25-0.447-1.25-1zM13 15c0.689 0 1.25 0.447 1.25 1s-0.561 1-1.25 1c-0.69 0-1.25-0.447-1.25-1s0.56-1 1.25-1zM5 7v-3h10v3h-10z"></path>
</symbol>
</defs>
</svg>
